<?xml version="1.0" encoding="utf-8"?>
<!-- Generator: Adobe Illustrator 25.0.1, SVG Export Plug-In . SVG Version: 6.00 Build 0)  -->
<svg version="1.0" id="katman_1" xmlns="http://www.w3.org/2000/svg" xmlns:xlink="http://www.w3.org/1999/xlink" x="0px" y="0px"
	 viewBox="0 0 207.2 150.7" style="enable-background:new 0 0 207.2 150.7;" xml:space="preserve">
<style type="text/css">
	.st0{fill:#00C1E6;}
</style>
<g>
	<g>
		<path class="st0" d="M103.6,21.6L43.8,50.8l59.8,29.2L74.3,50.8L103.6,21.6z"/>
		<path class="st0" d="M103.6,21.6l59.8,29.2l-59.8,29.3l29.3-29.3L103.6,21.6z"/>
	</g>
	<g>
		<path d="M125.8,107.4c0.1,1.8-0.4,3.6-1.4,5.2c-1,1.5-2.4,2.8-4.1,3.5c-1.7,0.7-3.5,1-5.3,0.6c-1.8-0.3-3.5-1.2-4.8-2.4
			c-1.3-1.3-2.2-2.9-2.6-4.7c-0.4-1.8-0.2-3.6,0.5-5.3c0.7-1.7,1.9-3.1,3.4-4.2c1.5-1,3.3-1.6,5.1-1.6c2.4,0,4.7,0.9,6.4,2.6
			C124.8,102.8,125.8,105,125.8,107.4z M125.7,95.4v3.2c-2.4-2.4-5.7-3.8-9.2-3.8c-1.6,0-3.3,0.3-4.8,0.9c-1.5,0.6-2.9,1.5-4,2.7
			c-1.2,1.2-2.1,2.5-2.7,4s-0.9,3.1-0.9,4.8c0,1.6,0.3,3.3,0.9,4.8s1.5,2.9,2.7,4c1.2,1.2,2.5,2.1,4,2.7c1.5,0.6,3.1,0.9,4.8,0.9
			c1.7,0,3.4-0.3,5-0.9c1.6-0.6,3-1.6,4.2-2.8c0,2.1,0,9.4-9,9.4c-3.1,0-6.2-1-8.7-2.8l-0.2,4.2c2.7,1.5,5.8,2.3,8.9,2.3
			c1.7,0.1,3.4-0.2,5-0.7c1.6-0.6,3.1-1.5,4.3-2.6c1.1-1.2,2-2.7,2.6-4.2c0.6-1.6,0.8-3.2,0.8-4.9V95.4H125.7z"/>
		<path d="M157.6,107.4c0.1,1.8-0.4,3.6-1.4,5.2c-1,1.5-2.4,2.8-4.1,3.5c-1.7,0.7-3.5,1-5.3,0.6c-1.8-0.3-3.5-1.2-4.8-2.4
			c-1.3-1.3-2.2-2.9-2.6-4.7c-0.4-1.8-0.2-3.6,0.5-5.3c0.7-1.7,1.9-3.1,3.4-4.2c1.5-1,3.3-1.6,5.1-1.6c2.4,0,4.7,0.9,6.4,2.6
			C156.6,102.7,157.5,105,157.6,107.4z M157.5,95.4v3.2c-1.2-1.2-2.6-2.1-4.2-2.8c-1.6-0.6-3.3-1-4.9-1c-1.7-0.1-3.3,0.2-4.9,0.8
			c-1.6,0.6-3,1.5-4.2,2.7c-1.2,1.2-2.2,2.6-2.8,4.1c-0.7,1.5-1,3.2-1,4.9c0,1.7,0.3,3.3,1,4.9c0.7,1.5,1.6,2.9,2.8,4.1
			s2.6,2.1,4.2,2.7c1.6,0.6,3.2,0.9,4.9,0.8c1.7,0,3.4-0.3,4.9-1c1.6-0.6,3-1.6,4.2-2.8c0,2.1,0,9.4-9,9.4c-3.1,0-6.2-1-8.7-2.8
			l-0.2,4.2c2.7,1.5,5.8,2.2,8.9,2.2c1.7,0.1,3.4-0.2,5-0.7c1.6-0.6,3.1-1.5,4.3-2.6c1.1-1.2,2-2.7,2.6-4.2c0.6-1.6,0.8-3.2,0.8-4.9
			V95.4H157.5z"/>
		<path d="M46.1,86.7v3.6h12v31.1h3.7l0-31.1l12,0v-3.6H46.1z"/>
		<path d="M85.9,118.4c-2,0-3.9-0.5-5.6-1.6c-1.7-1.1-3-2.6-3.7-4.4c-0.8-1.8-1-3.8-0.7-5.7c0.4-1.9,1.3-3.7,2.6-5.1
			c1.4-1.4,3.1-2.4,5.1-2.8c1.9-0.4,3.9-0.2,5.8,0.5c1.8,0.7,3.4,2,4.5,3.6c1.1,1.6,1.7,3.5,1.7,5.5c0.1,1.3-0.2,2.6-0.6,3.8
			c-0.5,1.2-1.2,2.3-2.1,3.3c-0.9,0.9-2,1.7-3.2,2.2C88.5,118.2,87.2,118.4,85.9,118.4z M85.9,95c-2.7,0-5.3,0.8-7.6,2.3
			c-2.2,1.5-4,3.6-5,6.1c-1,2.5-1.3,5.2-0.8,7.9c0.5,2.6,1.8,5.1,3.7,7c1.9,1.9,4.3,3.2,7,3.7c2.6,0.5,5.4,0.2,7.9-0.8
			c2.5-1,4.6-2.8,6.1-5c1.5-2.2,2.3-4.9,2.2-7.6c0-1.8-0.3-3.6-0.9-5.2c-0.7-1.7-1.7-3.2-2.9-4.4s-2.8-2.3-4.4-2.9
			C89.5,95.2,87.7,94.9,85.9,95z"/>
	</g>
</g>
</svg>
